<svg data-v-423bf9ae="" xmlns="http://www.w3.org/2000/svg" viewBox="0 0 338 90" class="iconLeft"><!----><defs data-v-423bf9ae=""><linearGradient data-v-423bf9ae="" gradientTransform="rotate(25)" id="4b3905b7-5dd3-4032-bc47-a6830c1f08f5" x1="0%" y1="0%" x2="100%" y2="0%"><stop data-v-423bf9ae="" offset="0%" style="stop-color: rgb(1, 100, 139); stop-opacity: 1;"></stop><stop data-v-423bf9ae="" offset="100%" style="stop-color: rgb(91, 208, 164); stop-opacity: 1;"></stop></linearGradient></defs><!----><g data-v-423bf9ae="" id="7f7d4b69-f3c8-493b-ba8f-b4b6f58bceea" fill="#ffffff" transform="matrix(6.0301508693628145,0,0,6.0301508693628145,109.15577923933091,-5.683416692377563)"><path d="M0.36 3.43C0.20 3.43 0.14 3.49 0.14 3.65L0.14 4.21C0.14 4.38 0.18 4.44 0.36 4.44L3.71 4.44L3.71 13.01C3.71 13.17 3.75 13.23 3.93 13.23L4.61 13.23C4.77 13.23 4.82 13.17 4.82 13.01L4.82 4.44L8.18 4.44C8.34 4.44 8.39 4.38 8.39 4.21L8.39 3.65C8.39 3.49 8.36 3.43 8.18 3.43ZM7.99 9.67C7.99 11.72 9.63 13.38 11.68 13.38C13.72 13.38 15.36 11.72 15.36 9.67C15.36 7.63 13.72 5.95 11.68 5.95C9.63 5.95 7.99 7.63 7.99 9.67ZM11.68 12.45C10.22 12.45 9.04 11.21 9.04 9.67C9.04 8.13 10.22 6.90 11.68 6.90C13.15 6.90 14.32 8.13 14.32 9.67C14.32 11.21 13.15 12.45 11.68 12.45ZM22.32 13.01C22.39 13.17 22.44 13.23 22.55 13.23L22.90 13.23C23.06 13.23 23.11 13.17 23.11 13.01L23.11 9.80L23.11 6.33C23.11 6.16 23.06 6.10 22.90 6.10L22.27 6.10C22.12 6.10 22.06 6.16 22.06 6.33L22.06 9.86C22.06 11.26 21.28 12.43 20.06 12.43C18.93 12.43 18.09 11.62 18.09 9.95L18.09 6.33C18.09 6.16 18.03 6.10 17.88 6.10L17.25 6.10C17.09 6.10 17.04 6.16 17.04 6.33L17.04 10.23C17.04 12.47 18.31 13.38 19.81 13.38C21.18 13.38 21.91 12.31 22.20 11.75ZM29.62 6.99C29.79 6.99 29.83 6.94 29.88 6.78L29.96 6.15C29.99 6.01 29.96 5.95 29.76 5.95C27.78 5.95 27.13 7.14 26.85 7.73L26.68 6.33C26.61 6.16 26.56 6.10 26.45 6.10L26.10 6.10C25.94 6.10 25.89 6.16 25.89 6.33L25.89 13.01C25.89 13.17 25.94 13.23 26.10 13.23L26.73 13.23C26.88 13.23 26.94 13.17 26.94 13.01L26.94 9.56C26.94 8.26 27.80 6.99 29.62 6.99ZM37.07 11.77C36.96 11.65 36.90 11.68 36.75 11.76C36.08 12.25 35.24 12.46 34.55 12.46C33.14 12.46 31.95 11.34 31.85 10.04L37.69 10.04C37.87 10.04 37.90 9.98 37.90 9.81C37.90 7.71 36.62 5.95 34.44 5.95C32.40 5.95 30.77 7.63 30.77 9.67C30.77 11.72 32.40 13.38 34.51 13.38C35.55 13.38 36.68 13.05 37.34 12.40C37.44 12.31 37.44 12.22 37.34 12.10ZM31.88 9.31C31.92 8.05 32.98 6.83 34.43 6.83C35.85 6.83 36.76 8.05 36.82 9.31Z"></path></g><!----><g data-v-423bf9ae="" id="58f440ec-0249-4ac3-adfd-fc1f751f1196" transform="matrix(2.8125,0,0,2.8125,0,0)" stroke="none" fill="#ffffff"><path d="M9.382 8.675h13.943v13.943L32 31.293V0H.707zM22.618 23.325H8.675V9.382L0 .707V32h31.293z"></path></g><!----></svg>